<svg width="16" height="16" viewBox="0 0 16 16" fill="none" xmlns="http://www.w3.org/2000/svg">
<path d="M8.87109 8.8L13.8 8.79999C13.9104 8.79999 14 8.71045 14 8.59999V7.39999C14 7.28954 13.9104 7.19999 13.8 7.19999L8.87109 7.2L8.87109 2.2C8.87109 2.08954 8.78155 2 8.67109 2H7.47109C7.36064 2 7.27109 2.08954 7.27109 2.2V7.2L2.2 7.20001C2.08954 7.20001 2 7.28955 2 7.40001V8.60001C2 8.71047 2.08954 8.80001 2.2 8.80001L7.27109 8.8L7.27109 13.8C7.27109 13.9104 7.36064 14 7.47109 14H8.67109C8.78155 14 8.87109 13.9104 8.87109 13.8L8.87109 8.8Z" fill="#21222C"/>
</svg>
